<svg width="1453" height="68" viewBox="0 0 1453 68" fill="none" xmlns="http://www.w3.org/2000/svg">
<path d="M1.05877 47.8249C308.001 84.1571 533.591 61.2752 750.725 39.3721C967.864 17.4685 1176.56 -3.45785 1449.62 36.827L1449.48 37.8163C1176.54 -2.44883 967.961 18.4638 750.825 40.3671C533.684 62.271 307.999 85.1639 0.941226 48.8179L1.05877 47.8249Z" fill="#F59425"/>
<path d="M1.05457 47.8248C311.496 81.9121 539.574 56.7931 757.387 32.0204C975.205 7.24701 1182.77 -17.1828 1452.12 18.326L1451.99 19.3174C1182.78 -16.1736 975.32 8.24044 757.5 33.014C539.676 57.7881 311.504 82.919 0.945427 48.8188L1.05457 47.8248Z" fill="#F59425"/>
</svg>
