<svg width="1453" height="68" viewBox="0 0 1453 68" fill="none" xmlns="http://www.w3.org/2000/svg">
<path d="M1451.99 47.8248C1145.05 84.1571 919.459 61.2752 702.326 39.3721C485.186 17.4685 276.495 -3.45788 3.42788 36.827L3.57383 37.8163C276.507 -2.44886 485.09 18.4638 702.226 40.3671C919.367 62.2709 1145.05 85.1639 1452.11 48.8179L1451.99 47.8248Z" fill="#F59425"/>
<path d="M1452 47.8248C1141.55 81.9121 913.477 56.7931 695.663 32.0203C477.845 7.24698 270.277 -17.1828 0.934404 18.326L1.06511 19.3174C270.273 -16.1736 477.731 8.24041 695.55 33.0139C913.375 57.788 1141.55 82.919 1452.11 48.8188L1452 47.8248Z" fill="#F59425"/>
</svg>
