<svg width="1455" height="127" viewBox="0 0 1455 127" fill="none" xmlns="http://www.w3.org/2000/svg">
<path d="M1454.05 48.5587C833.051 -20.2239 586.051 120.193 7.05078 48.5587V126.5H1454.05V48.5587Z" fill="#062C4E"/>
<path d="M1.05877 47.8249C308.001 84.1572 533.591 61.2753 750.725 39.3722C967.864 17.4686 1176.56 -3.45775 1449.62 36.8271L1449.48 37.8164C1176.54 -2.44874 967.961 18.4639 750.825 40.3672C533.684 62.2711 307.999 85.164 0.941226 48.818L1.05877 47.8249Z" fill="#F59425"/>
<path d="M1.05457 47.8249C311.496 81.9122 539.574 56.7932 757.387 32.0205C975.205 7.2471 1182.77 -17.1827 1452.12 18.3261L1451.99 19.3175C1182.78 -16.1735 975.32 8.24053 757.5 33.014C539.676 57.7881 311.504 82.9191 0.945427 48.8189L1.05457 47.8249Z" fill="#F59425"/>
</svg>
